<svg width="81" height="80" viewBox="0 0 81 80" fill="none" xmlns="http://www.w3.org/2000/svg">
<path d="M43.2187 2.65001C42.5431 3.25001 37.2885 13.6688 37.2885 13.6688L33.3789 29.425L48.5921 28.0313C48.5921 28.0313 61.2468 4.51876 61.5033 3.97501C61.9599 2.98751 62.2039 2.58126 60.4586 2.58126C58.7134 2.57501 43.8505 2.08751 43.2187 2.65001V2.65001Z" fill="#176CC7"/>
<path d="M51.094 27.0562C50.337 26.65 28.0427 26.3 27.5173 27.0562C27.0418 27.7437 27.1107 30.8875 27.3421 31.2937C27.5736 31.7 35.0676 35.1812 35.0676 35.1812L35.0613 36.45C35.0613 36.45 35.4742 37.4437 39.6528 37.4437C43.8314 37.4437 44.263 36.6 44.263 36.6L44.3006 35.3187C44.3006 35.3187 50.8625 32.0437 51.2066 31.7562C51.5569 31.4625 51.8509 27.4625 51.094 27.0562V27.0562ZM44.2255 32.2625C44.2255 32.2625 44.2067 31.3875 43.7751 31.1687C43.3435 30.95 36.3937 30.9875 35.8057 31.0187C35.2177 31.05 35.2177 32.1 35.2177 32.1L30.4636 29.7875V29.325L48.1664 29.45L48.1977 29.975L44.2255 32.2625V32.2625Z" fill="#FCC417"/>
<path d="M37.0694 31.9813C36.4813 31.9813 36.1436 32.5938 36.1436 33.6501C36.1436 34.6376 36.4813 35.4688 37.2257 35.4063C37.8388 35.3563 38.0515 34.4188 37.9952 33.5876C37.9389 32.6001 37.8138 31.9813 37.0694 31.9813V31.9813Z" fill="#FDFFFF"/>
<path d="M18.1279 56.7C18.1279 71.675 31.6772 78.3438 40.685 78.025C50.6186 77.6688 62.5164 69.9313 61.797 55.6438C61.1152 42.1063 49.7178 35.6875 39.8468 35.7563C28.3743 35.8375 18.1279 43.6188 18.1279 56.7V56.7Z" fill="#FCC417"/>
<path d="M40.3663 75.4189C40.2099 75.4189 40.0473 75.4189 39.8909 75.4126C35.1993 75.2564 30.5641 73.2814 27.1736 70.0001C23.5455 66.4876 21.5563 61.7376 21.5813 56.6314C21.6376 44.1626 32.547 38.3813 39.9472 38.3813H40.0098C50.0372 38.4251 58.2693 46.2126 58.5008 56.7689C58.6009 61.4689 56.6742 66.4001 52.8959 70.1126C49.3679 73.5689 44.6888 75.4189 40.3663 75.4189ZM39.9347 40.4564C33.2977 40.4564 23.4829 45.8813 23.4579 56.6314C23.4391 64.6689 29.6695 72.9314 40.0473 73.2814C44.0007 73.4064 48.073 71.8939 51.3634 68.6626C54.7788 65.3064 56.6992 60.9814 56.6304 56.7939C56.4803 47.7126 49.0489 40.4876 40.0285 40.4501C40.0035 40.4501 39.9535 40.4564 39.9347 40.4564Z" fill="#EA7A0E"/>
<path d="M36.1687 37.8812C35.7371 37.2874 30.8454 37.3999 26.2226 41.9124C21.7625 46.2687 21.2808 50.375 22.1378 50.6125C23.1074 50.8812 24.2897 46.5312 28.3745 42.8749C32.1277 39.5249 37.032 39.0624 36.1687 37.8812V37.8812Z" fill="#FEFFFA"/>
<path d="M55.0913 54.05C53.5838 54.2625 55.1476 58.775 51.6509 63.825C48.617 68.2063 45.1765 69.7937 45.5768 70.7562C46.1148 72.0437 51.6258 68.8375 54.1781 63.6125C56.4926 58.8813 56.2173 53.8875 55.0913 54.05V54.05Z" fill="#FEFFFA"/>
<path d="M15.9578 2.32502C15.5637 2.68752 30.633 29.5 30.633 29.5C30.633 29.5 33.1602 29.825 38.8026 29.875C44.445 29.925 47.2412 29.55 47.2412 29.55C47.2412 29.55 35.5248 2.59377 34.8241 2.32502C34.4801 2.18752 29.8386 2.13752 25.3034 2.08752C20.762 2.03127 16.3331 1.97502 15.9578 2.32502V2.32502Z" fill="#2E9DF4"/>
<path d="M37.0476 50.6V47.504H42.8316V65H39.3756V50.6H37.0476Z" fill="#EA7A0E"/>
</svg>
