<svg width="80" height="80" viewBox="0 0 80 80" fill="none" xmlns="http://www.w3.org/2000/svg">
<g opacity="0.7">
<path d="M43.1809 2.65001C42.5059 3.25001 37.2559 13.6688 37.2559 13.6688L33.3496 29.425L48.5496 28.0313C48.5496 28.0313 61.1934 4.51876 61.4496 3.97501C61.9059 2.98751 62.1496 2.58126 60.4059 2.58126C58.6621 2.57501 43.8121 2.08751 43.1809 2.65001Z" fill="#176CC7"/>
<path d="M51.0498 27.0562C50.2935 26.65 28.0185 26.3 27.4935 27.0562C27.0185 27.7437 27.0873 30.8875 27.3185 31.2937C27.5498 31.7 35.0373 35.1812 35.0373 35.1812L35.031 36.45C35.031 36.45 35.4435 37.4437 39.6185 37.4437C43.7935 37.4437 44.2248 36.6 44.2248 36.6L44.2623 35.3187C44.2623 35.3187 50.8185 32.0437 51.1623 31.7562C51.5123 31.4625 51.806 27.4625 51.0498 27.0562ZM44.1873 32.2625C44.1873 32.2625 44.1685 31.3875 43.7373 31.1687C43.306 30.95 36.3623 30.9875 35.7748 31.0187C35.1873 31.05 35.1873 32.1 35.1873 32.1L30.4373 29.7875V29.325L48.1248 29.45L48.156 29.975L44.1873 32.2625Z" fill="#CECDD2"/>
<path d="M37.0373 31.9813C36.4498 31.9813 36.1123 32.5938 36.1123 33.6501C36.1123 34.6376 36.4498 35.4688 37.1936 35.4063C37.8061 35.3563 38.0186 34.4188 37.9623 33.5876C37.9061 32.6001 37.7811 31.9813 37.0373 31.9813Z" fill="#FDFFFF"/>
<path d="M18.1123 56.7C18.1123 71.675 31.6498 78.3438 40.6498 78.025C50.5748 77.6688 62.4623 69.9313 61.7435 55.6438C61.0623 42.1063 49.6748 35.6875 39.8123 35.7563C28.3498 35.8375 18.1123 43.6188 18.1123 56.7Z" fill="#CECDD2"/>
<path d="M40.3315 75.4189C40.1752 75.4189 40.0127 75.4189 39.8565 75.4126C35.169 75.2564 30.5377 73.2814 27.1502 70.0001C23.5252 66.4876 21.5377 61.7376 21.5627 56.6314C21.619 44.1626 32.519 38.3813 39.9127 38.3813H39.9752C49.994 38.4251 58.219 46.2126 58.4502 56.7689C58.5502 61.4689 56.6252 66.4001 52.8502 70.1126C49.3252 73.5689 44.6502 75.4189 40.3315 75.4189ZM39.9002 40.4564C33.269 40.4564 23.4627 45.8813 23.4377 56.6314C23.419 64.6689 29.644 72.9314 40.0127 73.2814C43.9627 73.4064 48.0315 71.8939 51.319 68.6626C54.7315 65.3064 56.6502 60.9814 56.5815 56.7939C56.4315 47.7126 49.0065 40.4876 39.994 40.4501C39.969 40.4501 39.919 40.4564 39.9002 40.4564Z" fill="#868686"/>
<path d="M36.1377 37.8812C35.7064 37.2874 30.8189 37.3999 26.2002 41.9124C21.7439 46.2687 21.2627 50.375 22.1189 50.6125C23.0877 50.8812 24.2689 46.5312 28.3502 42.8749C32.1002 39.5249 37.0002 39.0624 36.1377 37.8812Z" fill="#FEFFFA"/>
<path d="M55.044 54.05C53.5378 54.2625 55.1003 58.775 51.6065 63.825C48.5753 68.2063 45.1378 69.7937 45.5378 70.7562C46.0753 72.0437 51.5815 68.8375 54.1315 63.6125C56.444 58.8813 56.169 53.8875 55.044 54.05Z" fill="#FEFFFA"/>
<path d="M15.9441 2.32502C15.5504 2.68752 30.6066 29.5 30.6066 29.5C30.6066 29.5 33.1316 29.825 38.7691 29.875C44.4066 29.925 47.2004 29.55 47.2004 29.55C47.2004 29.55 35.4941 2.59377 34.7941 2.32502C34.4504 2.18752 29.8129 2.13752 25.2816 2.08752C20.7441 2.03127 16.3191 1.97502 15.9441 2.32502Z" fill="#2E9DF4"/>
<path d="M35.4374 61.208C36.9734 59.928 38.1974 58.864 39.1094 58.016C40.0214 57.152 40.7814 56.256 41.3894 55.328C41.9974 54.4 42.3014 53.488 42.3014 52.592C42.3014 51.776 42.1094 51.136 41.7254 50.672C41.3414 50.208 40.7494 49.976 39.9494 49.976C39.1494 49.976 38.5334 50.248 38.1014 50.792C37.6694 51.32 37.4454 52.048 37.4294 52.976H34.1654C34.2294 51.056 34.7974 49.6 35.8694 48.608C36.9574 47.616 38.3334 47.12 39.9974 47.12C41.8214 47.12 43.2214 47.608 44.1974 48.584C45.1734 49.544 45.6614 50.816 45.6614 52.4C45.6614 53.648 45.3254 54.84 44.6534 55.976C43.9814 57.112 43.2134 58.104 42.3494 58.952C41.4854 59.784 40.3574 60.792 38.9654 61.976H46.0454V64.76H34.1894V62.264L35.4374 61.208Z" fill="#868686"/>
</g>
</svg>
