<svg width="100" height="100" viewBox="0 0 100 100" fill="none" xmlns="http://www.w3.org/2000/svg">
<path d="M53.9766 3.31254C53.1328 4.06254 46.5703 17.086 46.5703 17.086L41.6875 36.7813L60.6875 35.0391C60.6875 35.0391 76.4922 5.64848 76.8125 4.96879C77.3828 3.73442 77.6875 3.22661 75.5078 3.22661C73.3281 3.2188 54.7656 2.60942 53.9766 3.31254Z" fill="#176CC7"/>
<path d="M63.8125 33.8202C62.8671 33.3124 35.0234 32.8749 34.3671 33.8202C33.7734 34.6796 33.8593 38.6093 34.1484 39.1171C34.4374 39.6249 43.7968 43.9764 43.7968 43.9764L43.789 45.5624C43.789 45.5624 44.3046 46.8046 49.5234 46.8046C54.7421 46.8046 55.2812 45.7499 55.2812 45.7499L55.3281 44.1483C55.3281 44.1483 63.5234 40.0546 63.9531 39.6952C64.3906 39.328 64.7578 34.328 63.8125 33.8202ZM55.2343 40.328C55.2343 40.328 55.2109 39.2342 54.6718 38.9608C54.1328 38.6874 45.4531 38.7343 44.7187 38.7733C43.9843 38.8124 43.9843 40.1249 43.9843 40.1249L38.0468 37.2343V36.6561L60.1562 36.8124L60.1953 37.4686L55.2343 40.328Z" fill="#CECDD2"/>
<path d="M46.2969 39.9766C45.5625 39.9766 45.1406 40.7422 45.1406 42.0625C45.1406 43.2969 45.5625 44.3359 46.4922 44.2578C47.2578 44.1953 47.5234 43.0234 47.4531 41.9844C47.3828 40.75 47.2266 39.9766 46.2969 39.9766Z" fill="#FDFFFF"/>
<path d="M22.6406 70.875C22.6406 89.5937 39.5625 97.9296 50.8125 97.5312C63.2187 97.0859 78.0781 87.414 77.1797 69.5546C76.3281 52.6328 62.0937 44.6093 49.7656 44.6953C35.4375 44.7968 22.6406 54.5234 22.6406 70.875Z" fill="#CECDD2"/>
<path d="M50.4143 94.2734C50.219 94.2734 50.0159 94.2735 49.8206 94.2656C43.9612 94.0703 38.1722 91.6016 33.9378 87.5C29.4065 83.1094 26.9222 77.1719 26.9534 70.7891C27.0237 55.2031 40.6487 47.9766 49.8909 47.9766H49.969C62.4925 48.0313 72.7737 57.7656 73.0628 70.9609C73.1878 76.8359 70.7815 83 66.0628 87.6406C61.6565 91.9609 55.8128 94.2734 50.4143 94.2734ZM49.8753 50.5703C41.5862 50.5703 29.3284 57.3516 29.2972 70.7891C29.2737 80.8359 37.055 91.1641 50.0159 91.6016C54.9534 91.7578 60.0393 89.8672 64.1487 85.8281C68.4143 81.6328 70.8128 76.2266 70.7268 70.9922C70.5393 59.6406 61.2581 50.6094 49.9925 50.5625C49.9612 50.5625 49.8987 50.5703 49.8753 50.5703Z" fill="#868686"/>
<path d="M45.1714 47.3515C44.6323 46.6093 38.5229 46.7499 32.7495 52.3906C27.1792 57.8359 26.5776 62.9687 27.6479 63.2656C28.8589 63.6015 30.3354 58.164 35.437 53.5937C40.1245 49.4062 46.2495 48.8281 45.1714 47.3515Z" fill="#FEFFFA"/>
<path d="M68.8045 67.5624C66.9217 67.8281 68.8748 73.4687 64.5076 79.7812C60.7186 85.2577 56.4217 87.2421 56.9217 88.4452C57.5936 90.0546 64.4764 86.0468 67.6639 79.5156C70.5545 73.6015 70.2108 67.3593 68.8045 67.5624Z" fill="#FEFFFA"/>
<path d="M19.9294 2.90633C19.4372 3.35946 38.2575 36.8751 38.2575 36.8751C38.2575 36.8751 41.4138 37.2813 48.4607 37.3438C55.5075 37.4063 58.9997 36.9376 58.9997 36.9376C58.9997 36.9376 44.3669 3.24227 43.4919 2.90633C43.0622 2.73446 37.2653 2.67196 31.6013 2.60946C25.9294 2.53914 20.3982 2.46883 19.9294 2.90633Z" fill="#2E9DF4"/>
</svg>
