<svg width="80" height="80" viewBox="0 0 80 80" fill="none" xmlns="http://www.w3.org/2000/svg">
<g opacity="0.7">
<path d="M43.1809 2.65001C42.5059 3.25001 37.2559 13.6688 37.2559 13.6688L33.3496 29.425L48.5496 28.0313C48.5496 28.0313 61.1934 4.51876 61.4496 3.97501C61.9059 2.98751 62.1496 2.58126 60.4059 2.58126C58.6621 2.57501 43.8121 2.08751 43.1809 2.65001Z" fill="#176CC7"/>
<path d="M51.0498 27.0562C50.2935 26.65 28.0185 26.3 27.4935 27.0562C27.0185 27.7437 27.0873 30.8875 27.3185 31.2937C27.5498 31.7 35.0373 35.1812 35.0373 35.1812L35.031 36.45C35.031 36.45 35.4435 37.4437 39.6185 37.4437C43.7935 37.4437 44.2248 36.6 44.2248 36.6L44.2623 35.3187C44.2623 35.3187 50.8185 32.0437 51.1623 31.7562C51.5123 31.4625 51.806 27.4625 51.0498 27.0562ZM44.1873 32.2625C44.1873 32.2625 44.1685 31.3875 43.7373 31.1687C43.306 30.95 36.3623 30.9875 35.7748 31.0187C35.1873 31.05 35.1873 32.1 35.1873 32.1L30.4373 29.7875V29.325L48.1248 29.45L48.156 29.975L44.1873 32.2625Z" fill="#F79429"/>
<path d="M37.0373 31.9813C36.4498 31.9813 36.1123 32.5938 36.1123 33.65C36.1123 34.6375 36.4498 35.4688 37.1936 35.4063C37.8061 35.3563 38.0186 34.4188 37.9623 33.5875C37.9061 32.6 37.7811 31.9813 37.0373 31.9813Z" fill="#FDFFFF"/>
<path d="M18.1123 56.7C18.1123 71.675 31.6498 78.3437 40.6498 78.025C50.5748 77.6687 62.4623 69.9312 61.7435 55.6437C61.0623 42.1062 49.6748 35.6875 39.8123 35.7562C28.3498 35.8375 18.1123 43.6187 18.1123 56.7Z" fill="#F79429"/>
<path d="M40.3315 75.4188C40.1752 75.4188 40.0127 75.4188 39.8565 75.4125C35.169 75.2563 30.5377 73.2813 27.1502 70C23.5252 66.4875 21.5377 61.7375 21.5627 56.6313C21.619 44.1625 32.519 38.3813 39.9127 38.3813H39.9752C49.994 38.425 58.219 46.2125 58.4502 56.7688C58.5502 61.4688 56.6252 66.4 52.8502 70.1125C49.3252 73.5688 44.6502 75.4188 40.3315 75.4188ZM39.9002 40.4563C33.269 40.4563 23.4627 45.8813 23.4377 56.6313C23.419 64.6688 29.644 72.9313 40.0127 73.2813C43.9627 73.4063 48.0315 71.8938 51.319 68.6625C54.7315 65.3063 56.6502 60.9813 56.5815 56.7938C56.4315 47.7125 49.0065 40.4875 39.994 40.45C39.969 40.45 39.919 40.4563 39.9002 40.4563Z" fill="#D25116"/>
<path d="M36.1377 37.8813C35.7064 37.2875 30.8189 37.4 26.2002 41.9125C21.7439 46.2688 21.2627 50.375 22.1189 50.6125C23.0877 50.8813 24.2689 46.5313 28.3502 42.875C32.1002 39.525 37.0002 39.0625 36.1377 37.8813Z" fill="#FEFFFA"/>
<path d="M55.044 54.05C53.5378 54.2625 55.1003 58.775 51.6065 63.825C48.5753 68.2063 45.1378 69.7937 45.5378 70.7562C46.0753 72.0437 51.5815 68.8375 54.1315 63.6125C56.444 58.8813 56.169 53.8875 55.044 54.05Z" fill="#FEFFFA"/>
<path d="M15.9441 2.32502C15.5504 2.68752 30.6066 29.5 30.6066 29.5C30.6066 29.5 33.1316 29.825 38.7691 29.875C44.4066 29.925 47.2004 29.55 47.2004 29.55C47.2004 29.55 35.4941 2.59377 34.7941 2.32502C34.4504 2.18752 29.8129 2.13752 25.2816 2.08752C20.7441 2.03127 16.3191 1.97502 15.9441 2.32502Z" fill="#2E9DF4"/>
<path d="M34.6364 52.112C34.7164 50.512 35.2764 49.28 36.3164 48.416C37.3724 47.536 38.7564 47.096 40.4684 47.096C41.6364 47.096 42.6364 47.304 43.4684 47.72C44.3004 48.12 44.9244 48.672 45.3404 49.376C45.7724 50.064 45.9884 50.848 45.9884 51.728C45.9884 52.736 45.7244 53.592 45.1964 54.296C44.6844 54.984 44.0684 55.448 43.3484 55.688V55.784C44.2764 56.072 44.9964 56.584 45.5084 57.32C46.0364 58.056 46.3004 59 46.3004 60.152C46.3004 61.112 46.0764 61.968 45.6284 62.72C45.1964 63.472 44.5484 64.064 43.6844 64.496C42.8364 64.912 41.8124 65.12 40.6124 65.12C38.8044 65.12 37.3324 64.664 36.1964 63.752C35.0604 62.84 34.4604 61.496 34.3964 59.72H37.6604C37.6924 60.504 37.9564 61.136 38.4524 61.616C38.9644 62.08 39.6604 62.312 40.5404 62.312C41.3564 62.312 41.9804 62.088 42.4124 61.64C42.8604 61.176 43.0844 60.584 43.0844 59.864C43.0844 58.904 42.7804 58.216 42.1724 57.8C41.5644 57.384 40.6204 57.176 39.3404 57.176H38.6444V54.416H39.3404C41.6124 54.416 42.7484 53.656 42.7484 52.136C42.7484 51.448 42.5404 50.912 42.1244 50.528C41.7244 50.144 41.1404 49.952 40.3724 49.952C39.6204 49.952 39.0364 50.16 38.6204 50.576C38.2204 50.976 37.9884 51.488 37.9244 52.112H34.6364Z" fill="#D25116"/>
</g>
</svg>
