<svg width="80" height="80" viewBox="0 0 80 80" fill="none" xmlns="http://www.w3.org/2000/svg">
<g opacity="0.7">
<path d="M18 44.9453C18 59.9203 31.5688 66.1516 40.575 65.8828C51.0688 65.5703 62.3563 57.6078 61.425 43.3203C60.55 29.9141 49.2625 23.7641 39.4 23.8328C27.9375 23.9203 18 31.8641 18 44.9453Z" fill="#F2FCD8"/>
<path d="M54.9815 42.1643C53.4753 42.3768 55.0378 46.8893 51.544 51.9393C48.5128 56.3205 45.0753 57.908 45.4753 58.8705C46.0128 60.158 51.519 56.9518 54.069 51.7268C56.3753 46.9955 56.1003 42.0018 54.9815 42.1643Z" fill="#FEFFFA"/>
<path d="M35.9873 25.808C35.5561 25.2142 31.1373 25.383 26.3811 29.4767C21.6561 33.5455 20.9498 38.0455 21.7998 38.283C22.7686 38.5517 23.9498 34.2017 28.0311 30.5455C31.7811 27.2017 36.8436 26.9892 35.9873 25.808Z" fill="#FEFFFA"/>
<path d="M40.1 63.6205C39.9438 63.6205 39.7813 63.6205 39.625 63.6143C34.9375 63.458 30.3063 61.483 26.9188 58.2018C23.2938 54.6893 21.3063 49.9393 21.3313 44.833C21.3875 32.3643 32.2875 26.583 39.6813 26.583H39.7438C49.7625 26.6268 57.9875 34.4143 58.2188 44.9705C58.3188 49.6705 56.8188 54.3455 53.0438 58.058C49.5188 61.508 44.4188 63.6205 40.1 63.6205ZM39.6688 28.658C33.0375 28.658 23.2313 34.083 23.2063 44.833C23.1875 52.8705 29.4125 61.133 39.7813 61.483C43.7313 61.608 48.1875 60.1455 51.4688 56.9205C54.8813 53.5643 56.4125 49.1893 56.3438 45.0018C56.1938 35.9205 48.7688 28.6955 39.7563 28.658C39.7375 28.6455 39.6875 28.658 39.6688 28.658Z" fill="#3B7612"/>
<path d="M36.7189 19.8206C36.1314 19.8206 35.7939 20.4331 35.7939 21.4893C35.7939 22.4768 36.1314 23.3081 36.8752 23.2456C37.4877 23.1956 37.7002 22.2581 37.6439 21.4268C37.5877 20.4331 37.4627 19.8206 36.7189 19.8206Z" fill="#FDFFFF"/>
<path d="M50.731 14.4454C49.9747 14.0392 27.6997 13.6892 27.1747 14.4454C26.6997 15.1329 26.9685 18.7392 27.1497 19.1704C27.4747 19.9204 34.6685 23.1892 34.6685 23.1892L34.531 24.6767C34.531 24.6767 35.1185 24.8267 39.2997 24.8267C43.481 24.8267 44.306 24.6142 44.306 24.6142L44.3185 23.2704C44.3185 23.2704 50.7935 20.1204 51.1185 19.6829C51.3935 19.3204 51.4872 14.8517 50.731 14.4454ZM44.0997 20.1454C44.0997 20.1454 44.306 19.2267 43.8747 19.0142C43.4435 18.7954 36.0435 18.8954 35.456 18.9267C34.8685 18.9579 34.8685 20.0079 34.8685 20.0079L30.206 17.6079L30.1185 16.7142L47.806 16.8392L47.7435 17.6829L44.0997 20.1454Z" fill="#F2FCD8"/>
<path d="M32.128 49.592V46.952L39.976 35.72H43.888V46.664H46V49.592H43.888V53H40.528V49.592H32.128ZM40.744 39.32L35.824 46.664H40.744V39.32Z" fill="#2A610B"/>
</g>
</svg>
