<svg width="24" height="28" viewBox="0 0 24 28" fill="none" xmlns="http://www.w3.org/2000/svg">
<path d="M16.25 0.25H2.5C1.125 0.25 0 1.375 0 2.75V19C0 19.6875 0.5625 20.25 1.25 20.25C1.9375 20.25 2.5 19.6875 2.5 19V4C2.5 3.3125 3.0625 2.75 3.75 2.75H16.25C16.9375 2.75 17.5 2.1875 17.5 1.5C17.5 0.8125 16.9375 0.25 16.25 0.25ZM21.25 5.25H7.5C6.125 5.25 5 6.375 5 7.75V25.25C5 26.625 6.125 27.75 7.5 27.75H21.25C22.625 27.75 23.75 26.625 23.75 25.25V7.75C23.75 6.375 22.625 5.25 21.25 5.25ZM20 25.25H8.75C8.0625 25.25 7.5 24.6875 7.5 24V9C7.5 8.3125 8.0625 7.75 8.75 7.75H20C20.6875 7.75 21.25 8.3125 21.25 9V24C21.25 24.6875 20.6875 25.25 20 25.25Z" fill="#323232"/>
</svg>
