<svg width="28" height="28" viewBox="0 0 28 28" fill="none" xmlns="http://www.w3.org/2000/svg">
<path d="M27.125 0.895834C26.3125 0.0833338 25 0.0833338 24.1875 0.895834L14 11.0625L3.8125 0.875C3 0.0625 1.6875 0.0625 0.875 0.875C0.0625 1.6875 0.0625 3 0.875 3.8125L11.0625 14L0.875 24.1875C0.0625 25 0.0625 26.3125 0.875 27.125C1.6875 27.9375 3 27.9375 3.8125 27.125L14 16.9375L24.1875 27.125C25 27.9375 26.3125 27.9375 27.125 27.125C27.9375 26.3125 27.9375 25 27.125 24.1875L16.9375 14L27.125 3.8125C27.9167 3.02083 27.9167 1.6875 27.125 0.895834Z" fill="white"/>
</svg>
