<svg width="130" height="110" viewBox="0 0 130 110" fill="none" xmlns="http://www.w3.org/2000/svg">
<path d="M100.812 108.063C98.375 110.5 94.4375 110.5 92 108.063L78.75 94.8125C76.3125 92.375 76.3125 88.4375 78.75 86C81.1875 83.5625 85.125 83.5625 87.5625 86L96.375 94.8125L118.5 72.6875C120.937 70.25 124.875 70.25 127.313 72.6875C129.75 75.125 129.75 79.0625 127.313 81.5L100.812 108.063ZM63.5 100H13C6.125 100 0.5 94.375 0.5 87.5V12.5C0.5 5.625 6.125 0 13 0H113C119.875 0 125.5 5.625 125.5 12.5V54.25C119.812 51.5625 113.5 50 106.75 50C82.5625 50 63 69.5625 63 93.75C63 95.875 63.1875 97.9375 63.5 100ZM59.6875 54.1875C61.6875 55.4375 64.3125 55.4375 66.3125 54.1875L110.5 26.5625C112.062 25.5625 113 23.875 113 22.0625C113 17.875 108.438 15.375 104.875 17.5625L63 43.75L21.125 17.5625C17.5625 15.375 13 17.875 13 22.0625C13 23.875 13.9375 25.5625 15.5 26.5625L59.6875 54.1875Z" fill="#6DAF2B"/>
</svg>
