<svg width="38" height="38" viewBox="0 0 38 38" fill="none" xmlns="http://www.w3.org/2000/svg">
<path d="M27.0208 2.02083L30.0417 5.04167L25.5 9.54167C24.6875 10.3542 24.6875 11.6875 25.5 12.5C26.3125 13.3125 27.6458 13.3125 28.4583 12.5L32.9583 7.95833L35.9792 10.9792C36.625 11.625 37.75 11.1667 37.75 10.2292V1.29167C37.75 0.708333 37.2917 0.25 36.7083 0.25H27.7708C26.8333 0.25 26.375 1.375 27.0208 2.02083ZM2.02083 10.9792L5.04167 7.95833L9.54167 12.5C10.3542 13.3125 11.6875 13.3125 12.5 12.5C13.3125 11.6875 13.3125 10.3542 12.5 9.54167L7.95833 5.04167L10.9792 2.02083C11.625 1.375 11.1667 0.25 10.2292 0.25H1.29167C0.708333 0.25 0.25 0.708333 0.25 1.29167V10.2292C0.25 11.1667 1.375 11.625 2.02083 10.9792ZM10.9792 35.9792L7.95833 32.9583L12.5 28.4583C13.3125 27.6458 13.3125 26.3125 12.5 25.5C11.6875 24.6875 10.3542 24.6875 9.54167 25.5L5.04167 30.0417L2.02083 27.0208C1.375 26.375 0.25 26.8333 0.25 27.7708V36.7083C0.25 37.2917 0.708333 37.75 1.29167 37.75H10.2292C11.1667 37.75 11.625 36.625 10.9792 35.9792ZM35.9792 27.0208L32.9583 30.0417L28.4583 25.5C27.6458 24.6875 26.3125 24.6875 25.5 25.5C24.6875 26.3125 24.6875 27.6458 25.5 28.4583L30.0417 32.9583L27.0208 35.9792C26.375 36.625 26.8333 37.75 27.7708 37.75H36.7083C37.2917 37.75 37.75 37.2917 37.75 36.7083V27.7708C37.75 26.8333 36.625 26.375 35.9792 27.0208Z" fill="white"/>
</svg>
