<svg width="24" height="24" viewBox="0 0 24 24" fill="none" xmlns="http://www.w3.org/2000/svg">
<path d="M0 5C0 2.23858 2.23858 0 5 0H19C21.7614 0 24 2.23858 24 5V19C24 21.7614 21.7614 24 19 24H5C2.23858 24 0 21.7614 0 19V5Z" fill="white"/>
<path d="M20.4047 10.3214H19.7143V10.2859H12V13.7144H16.8442C16.1374 15.7103 14.2384 17.143 12 17.143C9.15987 17.143 6.85716 14.8403 6.85716 12.0001C6.85716 9.16 9.15987 6.85728 12 6.85728C13.311 6.85728 14.5037 7.35185 15.4119 8.15971L17.8363 5.73528C16.3054 4.30857 14.2577 3.42871 12 3.42871C7.26645 3.42871 3.42859 7.26657 3.42859 12.0001C3.42859 16.7337 7.26645 20.5716 12 20.5716C16.7336 20.5716 20.5714 16.7337 20.5714 12.0001C20.5714 11.4254 20.5123 10.8644 20.4047 10.3214Z" fill="#FFC107"/>
<path d="M4.41693 8.01057L7.23307 10.0759C7.99507 8.18928 9.8405 6.85728 12.0001 6.85728C13.3111 6.85728 14.5038 7.35185 15.4119 8.15971L17.8364 5.73528C16.3055 4.30857 14.2578 3.42871 12.0001 3.42871C8.70779 3.42871 5.85265 5.28743 4.41693 8.01057Z" fill="#FF3D00"/>
<path d="M12.0001 20.5718C14.2141 20.5718 16.2258 19.7245 17.7468 18.3466L15.094 16.1018C14.2045 16.7782 13.1176 17.1441 12.0001 17.1432C9.77067 17.1432 7.87767 15.7216 7.16453 13.7378L4.36938 15.8914C5.78796 18.6672 8.66881 20.5718 12.0001 20.5718Z" fill="#4CAF50"/>
<path d="M20.4048 10.3217H19.7143V10.2861H12.0001V13.7147H16.8442C16.5062 14.6646 15.8972 15.4946 15.0926 16.1023L15.0939 16.1014L17.7468 18.3463C17.5591 18.5168 20.5715 16.2861 20.5715 12.0004C20.5715 11.4257 20.5123 10.8647 20.4048 10.3217Z" fill="#1976D2"/>
</svg>
