<svg width="28" height="19" viewBox="0 0 28 19" fill="none" xmlns="http://www.w3.org/2000/svg">
<path d="M19.0909 8.14286C21.2036 8.14286 22.8964 6.32429 22.8964 4.07143C22.8964 1.81857 21.2036 0 19.0909 0C16.9782 0 15.2727 1.81857 15.2727 4.07143C15.2727 6.32429 16.9782 8.14286 19.0909 8.14286ZM8.90909 8.14286C11.0218 8.14286 12.7145 6.32429 12.7145 4.07143C12.7145 1.81857 11.0218 0 8.90909 0C6.79636 0 5.09091 1.81857 5.09091 4.07143C5.09091 6.32429 6.79636 8.14286 8.90909 8.14286ZM8.90909 10.8571C5.94364 10.8571 0 12.445 0 15.6071V17.6429C0 18.3893 0.572727 19 1.27273 19H16.5455C17.2455 19 17.8182 18.3893 17.8182 17.6429V15.6071C17.8182 12.445 11.8745 10.8571 8.90909 10.8571ZM19.0909 10.8571C18.7218 10.8571 18.3018 10.8843 17.8564 10.925C17.8818 10.9386 17.8945 10.9657 17.9073 10.9793C19.3582 12.1057 20.3636 13.6121 20.3636 15.6071V17.6429C20.3636 18.1179 20.2745 18.5793 20.1345 19H26.7273C27.4273 19 28 18.3893 28 17.6429V15.6071C28 12.445 22.0564 10.8571 19.0909 10.8571Z" fill="#52921D"/>
</svg>
