<svg width="50" height="50" viewBox="0 0 50 50" fill="none" xmlns="http://www.w3.org/2000/svg">
<path d="M32.2916 29.1666H30.6457L30.0624 28.6041C32.5624 25.6875 33.8541 21.7083 33.1457 17.4791C32.1666 11.6875 27.3332 7.06246 21.4999 6.35413C12.6874 5.27079 5.27073 12.6875 6.35407 21.5C7.0624 27.3333 11.6874 32.1666 17.4791 33.1458C21.7082 33.8541 25.6874 32.5625 28.6041 30.0625L29.1666 30.6458V32.2916L38.0207 41.1458C38.8749 42 40.2707 42 41.1249 41.1458C41.9791 40.2916 41.9791 38.8958 41.1249 38.0416L32.2916 29.1666ZM19.7916 29.1666C14.6041 29.1666 10.4166 24.9791 10.4166 19.7916C10.4166 14.6041 14.6041 10.4166 19.7916 10.4166C24.9791 10.4166 29.1666 14.6041 29.1666 19.7916C29.1666 24.9791 24.9791 29.1666 19.7916 29.1666Z" fill="#8ACC3B"/>
</svg>
