<svg width="25" height="25" viewBox="0 0 25 25" fill="none" xmlns="http://www.w3.org/2000/svg">
<path d="M12.5001 6.77079C15.3751 6.77079 17.7084 9.10413 17.7084 11.9791C17.7084 12.5104 17.6042 13.0208 17.4584 13.5L20.6459 16.6875C22.0938 15.4062 23.2397 13.802 23.9584 11.9687C22.1563 7.40621 17.7084 4.16663 12.5001 4.16663C11.1772 4.16663 9.90633 4.37496 8.70841 4.76038L10.9688 7.02079C11.4584 6.87496 11.9688 6.77079 12.5001 6.77079ZM2.823 3.29163C2.41675 3.69788 2.41675 4.35413 2.823 4.76038L4.87508 6.81246C3.18758 8.15621 1.84383 9.92704 1.04175 11.9791C2.84383 16.552 7.29175 19.7916 12.5001 19.7916C14.0834 19.7916 15.5938 19.4791 16.9897 18.9375L19.823 21.7708C20.2292 22.177 20.8855 22.177 21.2917 21.7708C21.698 21.3645 21.698 20.7083 21.2917 20.302L4.30216 3.29163C3.89591 2.88538 3.22925 2.88538 2.823 3.29163ZM12.5001 17.1875C9.62508 17.1875 7.29175 14.8541 7.29175 11.9791C7.29175 11.177 7.47925 10.4166 7.80216 9.74996L9.43758 11.3854C9.40633 11.5729 9.37508 11.7708 9.37508 11.9791C9.37508 13.7083 10.7709 15.1041 12.5001 15.1041C12.7084 15.1041 12.8959 15.0729 13.0938 15.0312L14.7292 16.6666C14.0522 17 13.3022 17.1875 12.5001 17.1875ZM15.5938 11.6354C15.4376 10.177 14.2917 9.04163 12.8438 8.88538L15.5938 11.6354Z" fill="#323232"/>
</svg>
